<svg version="1.1" xmlns="http://www.w3.org/2000/svg" viewBox="-0.25 -0.25 460.5 460.58"><path d="M0 0 C1.28826439 -0.01058945 1.28826439 -0.01058945 2.60255432 -0.02139282 C66.45939446 -0.4267645 123.22398668 18.67245398 170.83984375 62.203125 C172.74164331 64.1967825 174.54305702 66.2119805 176.27734375 68.3515625 C178.32744038 70.780927 180.58068528 72.96774715 182.83984375 75.203125 C190.76457752 83.27893688 197.21762699 92.02844447 203.57421875 101.35595703 C204.58200123 102.82680624 205.61325481 104.28156672 206.65234375 105.73046875 C211.19028767 112.15511217 214.47217256 119.23724115 217.89794922 126.29296875 C218.71697391 127.95394573 219.57401305 129.59607213 220.4375 131.234375 C231.83018966 152.8652951 237.88032542 177.069397 240.83984375 201.203125 C241.01185303 202.42459229 241.1838623 203.64605957 241.36108398 204.90454102 C241.91960222 209.39533616 242.0182322 213.84184206 242.04296875 218.36328125 C242.05002838 219.22212418 242.05708801 220.0809671 242.06436157 220.96583557 C242.46973325 284.82267571 223.37051477 341.58726793 179.83984375 389.203125 C177.84618625 391.10492456 175.83098825 392.90633827 173.69140625 394.640625 C171.26204175 396.69072163 169.0752216 398.94396653 166.83984375 401.203125 C158.76403187 409.12785877 150.01452428 415.58090824 140.68701172 421.9375 C139.21616251 422.94528248 137.76140203 423.97653606 136.3125 425.015625 C129.88785658 429.55356892 122.8057276 432.83545381 115.75 436.26123047 C114.08902302 437.08025516 112.44689662 437.9372943 110.80859375 438.80078125 C80.45903993 454.78544794 46.10604952 460.65946078 12.15234375 460.515625 C11.23197327 460.51346985 10.31160278 460.5113147 9.36334229 460.50909424 C-49.50356182 460.28836089 -103.75232785 437.88679372 -147.16015625 398.203125 C-149.06195581 396.2094675 -150.86336952 394.1942695 -152.59765625 392.0546875 C-154.64775288 389.625323 -156.90099778 387.43850285 -159.16015625 385.203125 C-167.08489002 377.12731312 -173.53793949 368.37780553 -179.89453125 359.05029297 C-180.90231373 357.57944376 -181.93356731 356.12468328 -182.97265625 354.67578125 C-187.51060017 348.25113783 -190.79248506 341.16900885 -194.21826172 334.11328125 C-195.03728641 332.45230427 -195.89432555 330.81017787 -196.7578125 329.171875 C-207.95263893 307.91663121 -214.16472811 283.93060498 -217.16015625 260.203125 C-217.2474852 259.52350204 -217.33481415 258.84387909 -217.42478943 258.1436615 C-218.07756159 252.72961572 -218.33326826 247.39600154 -218.36328125 241.9453125 C-218.37034088 241.08788452 -218.37740051 240.23045654 -218.38467407 239.3470459 C-218.79060831 175.53101135 -199.6587316 118.78387434 -156.16015625 71.203125 C-154.16649875 69.30132544 -152.15130075 67.49991173 -150.01171875 65.765625 C-147.58235425 63.71552837 -145.3955341 61.46228347 -143.16015625 59.203125 C-135.08434437 51.27839123 -126.33483678 44.82534176 -117.00732422 38.46875 C-115.53647501 37.46096752 -114.08171453 36.42971394 -112.6328125 35.390625 C-106.20816908 30.85268108 -99.1260401 27.57079619 -92.0703125 24.14501953 C-90.40933552 23.32599484 -88.76720912 22.4689557 -87.12890625 21.60546875 C-65.49798615 10.21277909 -41.29388425 4.16264333 -17.16015625 1.203125 C-15.32795532 0.94511108 -15.32795532 0.94511108 -13.45874023 0.68188477 C-8.96794509 0.12336653 -4.52143919 0.02473655 0 0 Z M-129.69921875 68.87744141 C-131.06320281 70.11514753 -132.45453038 71.32253286 -133.84765625 72.52734375 C-149.1514512 85.84642779 -161.67633526 101.90238226 -172.16015625 119.203125 C-173.17722656 120.86601562 -173.17722656 120.86601562 -174.21484375 122.5625 C-202.82534677 170.87751289 -209.9424444 229.02713749 -196.4765625 283.21484375 C-187.92742393 316.14695592 -172.51753623 346.50899076 -149.48583984 371.7421875 C-148.24813372 373.10617156 -147.04074839 374.49749913 -145.8359375 375.890625 C-132.51685346 391.19441995 -116.46089899 403.71930401 -99.16015625 414.203125 C-97.49726563 415.22019531 -97.49726563 415.22019531 -95.80078125 416.2578125 C-47.48576836 444.86831552 10.66385624 451.98541315 64.8515625 438.51953125 C97.78367467 429.97039268 128.14570951 414.56050498 153.37890625 391.52880859 C154.74289031 390.29110247 156.13421788 389.08371714 157.52734375 387.87890625 C172.8311387 374.55982221 185.35602276 358.50386774 195.83984375 341.203125 C196.51789063 340.09453125 197.1959375 338.9859375 197.89453125 337.84375 C226.50503427 289.52873711 233.6221319 231.37911251 220.15625 177.19140625 C211.60711143 144.25929408 196.19722373 113.89725924 173.16552734 88.6640625 C171.92782122 87.30007844 170.72043589 85.90875087 169.515625 84.515625 C156.19654096 69.21183005 140.14058649 56.68694599 122.83984375 46.203125 C121.73125 45.52507813 120.62265625 44.84703125 119.48046875 44.1484375 C41.77349001 -1.8669854 -62.79691216 7.81210636 -129.69921875 68.87744141 Z " fill="#2041C3" transform="translate(218.16015625,-0.203125)"></path><path d="M0 0 C1.28648437 -0.01417969 2.57296875 -0.02835937 3.8984375 -0.04296875 C7.50952711 0.18035859 10.27261667 0.87456968 13.625 2.1875 C13.625 2.8475 13.625 3.5075 13.625 4.1875 C14.285 4.1875 14.945 4.1875 15.625 4.1875 C14.52714481 30.68745296 11.78784667 56.5070649 3.25 81.6875 C2.70545166 83.29939209 2.70545166 83.29939209 2.14990234 84.94384766 C-5.31492471 106.11114406 -21.04786947 127.17650998 -40.375 139.1875 C-42.02649358 139.89091393 -43.69067231 140.56680485 -45.375 141.1875 C-45.375 141.8475 -45.375 142.5075 -45.375 143.1875 C-46.035 143.8475 -46.695 144.5075 -47.375 145.1875 C-47.05660156 146.17621094 -46.73820313 147.16492188 -46.41015625 148.18359375 C-42.20737597 163.06673138 -46.57633902 178.35472028 -52.375 192.1875 C-52.92542969 193.02023437 -53.47585938 193.85296875 -54.04296875 194.7109375 C-56.1384176 198.60687467 -56.09009422 202.63914134 -56.375 207 C-56.89059191 213.51831473 -57.56714466 219.84150882 -58.875 226.25 C-63.21062739 247.97215349 -63.1227462 269.29496875 -60.375 291.1875 C-60.27944824 291.95674805 -60.18389648 292.72599609 -60.08544922 293.51855469 C-59.85015314 295.40839304 -59.61279739 297.29797476 -59.375 299.1875 C-62.675 299.5175 -65.975 299.8475 -69.375 300.1875 C-71.93320821 288.77268561 -72.87127246 277.9334924 -72.75 266.25 C-72.74534729 265.44723633 -72.74069458 264.64447266 -72.73590088 263.81738281 C-72.58893251 242.06821786 -70.11507681 221.93123153 -63.375 201.1875 C-63.705 200.8575 -64.035 200.5275 -64.375 200.1875 C-64.60832031 200.77015625 -64.84164062 201.3528125 -65.08203125 201.953125 C-68.70218115 210.08886823 -74.15189766 215.99803605 -80.375 222.1875 C-81.220625 223.033125 -82.06625 223.87875 -82.9375 224.75 C-95.16433393 236.380403 -111.57214675 249.10563429 -127.375 255.1875 C-127.36412354 256.0839624 -127.35324707 256.9804248 -127.34204102 257.90405273 C-127.28227571 266.71573518 -127.57079975 275.44152914 -128.17456055 284.23413086 C-128.31455819 286.28007876 -128.44584861 288.32646205 -128.57617188 290.37304688 C-129.40498805 302.86668324 -129.40498805 302.86668324 -130.375 307.1875 C-133.58951269 308.79475635 -136.81112536 308.24498185 -140.375 308.1875 C-140.75407198 292.45601273 -139.58622883 276.86582634 -138.375 261.1875 C-139.37660156 261.60902344 -140.37820312 262.03054688 -141.41015625 262.46484375 C-142.75243088 263.01864936 -144.09488867 263.57201117 -145.4375 264.125 C-146.09427734 264.40279297 -146.75105469 264.68058594 -147.42773438 264.96679688 C-167.18036418 273.04299527 -197.10933113 269.14190758 -216.37841797 261.11425781 C-221.42006228 258.77406684 -226.17771602 255.84160605 -230.375 252.1875 C-230.375 251.5275 -230.375 250.8675 -230.375 250.1875 C-230.97183594 249.93097656 -231.56867188 249.67445313 -232.18359375 249.41015625 C-234.59452969 248.0650173 -235.77789574 246.81567763 -237.4375 244.625 C-237.92347656 244.00496094 -238.40945312 243.38492188 -238.91015625 242.74609375 C-242.86439097 235.83936378 -243.85435327 229.17432293 -243.6875 221.3125 C-243.6762207 220.43480957 -243.66494141 219.55711914 -243.65332031 218.65283203 C-243.23428853 198.80028226 -235.86999115 186.28584396 -222.375 172.1875 C-221.5819043 171.35508789 -220.78880859 170.52267578 -219.97167969 169.66503906 C-217.26841628 166.84358926 -214.54334348 164.04474814 -211.8125 161.25 C-210.93859619 160.33790771 -210.06469238 159.42581543 -209.16430664 158.48608398 C-204.93280459 154.20145523 -201.32794433 150.91581059 -195.7734375 148.49609375 C-193.33030915 147.46708124 -193.33030915 147.46708124 -191.375 146.1875 C-190.14201496 142.8634171 -190.14201496 142.8634171 -190.5625 139.1875 C-190.5625 128.69537943 -186.92846267 120.0319035 -181.375 111.1875 C-183.355 110.1975 -183.355 110.1975 -185.375 109.1875 C-185.375 110.5075 -185.375 111.8275 -185.375 113.1875 C-186.035 113.1875 -186.695 113.1875 -187.375 113.1875 C-188.035 114.8375 -188.695 116.4875 -189.375 118.1875 C-204.23757986 118.86650111 -213.72966445 114.57446022 -224.76171875 104.734375 C-232.8748263 96.95522103 -241.8678788 85.85466227 -242.546875 74.25 C-242.56062974 71.55407102 -242.50862334 68.87976278 -242.375 66.1875 C-240.03125 65.98046875 -240.03125 65.98046875 -237.375 66.1875 C-235.96875 67.55078125 -235.96875 67.55078125 -234.875 69.5 C-234.45992187 70.22960937 -234.04484375 70.95921875 -233.6171875 71.7109375 C-232.31209053 74.31292329 -231.15203479 76.95197811 -230 79.625 C-226.28489084 87.99267578 -220.9816327 94.07629386 -213.87890625 99.77734375 C-213.38261719 100.24269531 -212.88632813 100.70804687 -212.375 101.1875 C-212.375 101.8475 -212.375 102.5075 -212.375 103.1875 C-209.405 103.6825 -209.405 103.6825 -206.375 104.1875 C-206.87 100.7225 -206.87 100.7225 -207.375 97.1875 C-202.92629785 96.79496746 -200.23256507 98.03444043 -196.375 100.1875 C-195.385 98.2075 -195.385 98.2075 -194.375 96.1875 C-192.725 96.5175 -191.075 96.8475 -189.375 97.1875 C-189.375 97.8475 -189.375 98.5075 -189.375 99.1875 C-188.715 99.1875 -188.055 99.1875 -187.375 99.1875 C-183.58925217 85.18088266 -183.58925217 85.18088266 -187.375 71.75 C-188.365 70.4815625 -188.365 70.4815625 -189.375 69.1875 C-189.705 68.1975 -190.035 67.2075 -190.375 66.1875 C-192.21631793 65.12580294 -192.21631793 65.12580294 -194.375 64.1875 C-195.76033975 63.24417527 -197.13480995 62.28475712 -198.5 61.3125 C-213.06358988 51.61126997 -232.12935089 49.06133078 -249.01000977 45.88696289 C-250.02506592 45.69352295 -251.04012207 45.50008301 -252.0859375 45.30078125 C-252.98618652 45.13360596 -253.88643555 44.96643066 -254.81396484 44.79418945 C-257.47085538 44.1647926 -259.8686473 43.26241674 -262.375 42.1875 C-262.375 40.8675 -262.375 39.5475 -262.375 38.1875 C-250.14274532 32.21641916 -234.05435983 36.50570693 -221.4375 39.375 C-220.78654358 39.52089569 -220.13558716 39.66679138 -219.46490479 39.81710815 C-202.89044135 43.58588325 -186.96630623 48.27087151 -177.375 63.1875 C-176.91222656 63.84878906 -176.44945312 64.51007813 -175.97265625 65.19140625 C-170.48751271 73.31577828 -169.52171473 81.54166649 -170.375 91.1875 C-171.01203137 93.94183216 -171.78647205 96.55921171 -172.71875 99.2265625 C-173.48078699 101.1589625 -173.48078699 101.1589625 -173.375 103.1875 C-172.323125 102.548125 -171.27125 101.90875 -170.1875 101.25 C-165.29932658 98.27875733 -160.57715866 98.03321354 -154.9375 98 C-153.84566406 97.98582031 -152.75382812 97.97164063 -151.62890625 97.95703125 C-145.88314127 98.3639942 -141.36504906 99.98744836 -137.375 104.1875 C-131.53330324 114.91947711 -133.44650748 123.70346327 -136.3125 135.0625 C-136.59029297 136.20203125 -136.86808594 137.3415625 -137.15429688 138.515625 C-139.21008672 146.85767345 -139.21008672 146.85767345 -140.375 149.1875 C-140.96667969 149.14109375 -141.55835938 149.0946875 -142.16796875 149.046875 C-147.46152294 148.76501773 -147.46152294 148.76501773 -152.125 151.0625 C-152.8675 151.76375 -153.61 152.465 -154.375 153.1875 C-159.64864624 155.7260009 -164.62230286 155.8652603 -170.375 155.1875 C-174.96985321 153.52443746 -178.68108346 150.32173221 -182.375 147.1875 C-182.705 148.1775 -183.035 149.1675 -183.375 150.1875 C-184.5196875 150.620625 -184.5196875 150.620625 -185.6875 151.0625 C-189.07689889 152.48131814 -190.13732322 154.29168299 -192.375 157.1875 C-198.64323529 163.1875 -198.64323529 163.1875 -201.375 163.1875 C-201.61436279 163.75428467 -201.85372559 164.32106934 -202.1003418 164.9050293 C-203.64339453 167.66810151 -205.4987018 169.50242953 -207.76953125 171.70703125 C-208.64287109 172.56490234 -209.51621094 173.42277344 -210.41601562 174.30664062 C-212.25178803 176.09066469 -214.0877234 177.87452109 -215.92382812 179.65820312 C-226.92718166 190.46752251 -232.31470505 200.5481495 -233.375 216.1875 C-232.86453125 215.39085937 -232.86453125 215.39085937 -232.34375 214.578125 C-227.89718132 208.09748767 -224.01297893 205.29552891 -216.3828125 203.47265625 C-201.36646146 200.81965197 -182.82200183 200.99966787 -169.875 210 C-165.41516606 213.74324328 -162.19103956 217.68837885 -160.375 223.25 C-160.375 227.05441622 -161.30262137 229.00985277 -163.375 232.1875 C-167.79906768 236.50623274 -173.05470159 238.23213405 -178.75 240.3125 C-179.67039062 240.65925781 -180.59078125 241.00601563 -181.5390625 241.36328125 C-185.48637561 242.83506514 -189.41449501 244.24540163 -193.4765625 245.3671875 C-196.24679311 245.89668599 -196.24679311 245.89668599 -197.375 247.1875 C-197.44648199 248.53993917 -197.45899454 249.89584367 -197.4375 251.25 C-197.416875 252.549375 -197.39625 253.84875 -197.375 255.1875 C-194.55914975 255.42989004 -191.74307807 255.6655061 -188.92578125 255.890625 C-186.58778113 256.08610136 -184.2515512 256.3042879 -181.91796875 256.546875 C-164.44741435 258.19393063 -150.64980339 252.77002221 -134.875 245.9375 C-133.82441406 245.49792969 -132.77382812 245.05835938 -131.69140625 244.60546875 C-124.13315928 241.32617989 -117.89781614 237.18316968 -111.375 232.1875 C-110.180051 231.36173945 -108.97812983 230.54585348 -107.765625 229.74609375 C-101.10569908 225.24815871 -95.12492518 220.37222833 -89.375 214.75 C-88.76430664 214.16597412 -88.15361328 213.58194824 -87.52441406 212.98022461 C-80.43123808 205.82946781 -75.91988822 198.61046549 -75.7890625 188.33203125 C-75.80580645 185.55181409 -75.89792438 182.7781902 -76 180 C-76.03017358 178.55669701 -76.05753622 177.11333241 -76.08203125 175.66992188 C-76.14736095 172.17447574 -76.25045746 168.68139732 -76.375 165.1875 C-73.375 164.1875 -73.375 164.1875 -70.875 165.375 C-66.37159914 168.63996562 -64.90958544 171.90727336 -63.375 177.1875 C-63.09919137 179.47202807 -62.8906214 181.76568383 -62.75 184.0625 C-62.63785156 185.79113281 -62.63785156 185.79113281 -62.5234375 187.5546875 C-62.47445312 188.42351562 -62.42546875 189.29234375 -62.375 190.1875 C-55.28365827 168.80046997 -55.28365827 168.80046997 -58.5625 147.09765625 C-59.452812 143.90879835 -59.4976045 142.28525297 -58.375 139.1875 C-56.921875 137.7109375 -56.921875 137.7109375 -55.125 136.5625 C-54.54234375 136.17835938 -53.9596875 135.79421875 -53.359375 135.3984375 C-51.90171054 134.50891785 -50.43090626 133.64083927 -48.953125 132.78515625 C-46.24836325 131.10902359 -43.84189056 129.25820309 -41.375 127.25 C-40.55 126.58097656 -39.725 125.91195312 -38.875 125.22265625 C-37.13499309 123.80618187 -35.40661531 122.37535179 -33.6875 120.93359375 C-31.375 119.1875 -31.375 119.1875 -29.375 119.1875 C-29.045 118.1975 -28.715 117.2075 -28.375 116.1875 C-27.715 116.1875 -27.055 116.1875 -26.375 116.1875 C-26.00375 115.135625 -26.00375 115.135625 -25.625 114.0625 C-24.21411974 110.81747541 -22.39604602 108.08433263 -20.375 105.1875 C-21.035 104.8575 -21.695 104.5275 -22.375 104.1875 C-23.07590069 98.10644614 -20.62700726 93.9359163 -17.9375 88.6875 C-14.11217736 81.28731577 -14.11217736 81.28731577 -12.375 73.1875 C-11.055 72.8575 -9.735 72.5275 -8.375 72.1875 C-8.33375 71.115 -8.2925 70.0425 -8.25 68.9375 C-7.52963453 62.77560458 -4.30158763 57.55738556 -1.375 52.1875 C-0.715 52.1875 -0.055 52.1875 0.625 52.1875 C2.68989294 38.51802532 4.16222348 25.00696438 4.625 11.1875 C3.81417969 11.76757812 3.00335938 12.34765625 2.16796875 12.9453125 C-14.00231864 24.39660621 -14.00231864 24.39660621 -22.375 27.1875 C-22.705 28.1775 -23.035 29.1675 -23.375 30.1875 C-25.60802712 32.48819461 -27.89453879 34.72449144 -30.203125 36.94921875 C-38.14816369 45.16013472 -45.45713942 57.01217993 -45.76171875 68.73046875 C-45.02304909 75.33372784 -43.25189889 81.71530069 -41.58984375 88.13671875 C-40.1550652 93.81538773 -39.50853762 99.32398462 -39.375 105.1875 C-34.92 104.6925 -34.92 104.6925 -30.375 104.1875 C-30.52135093 109.01708082 -32.94521029 111.21525485 -36.26953125 114.34765625 C-46.22672542 123.04865524 -46.22672542 123.04865524 -51.375 125.1875 C-53.625 124.8125 -53.625 124.8125 -55.375 124.1875 C-55.045 122.2075 -54.715 120.2275 -54.375 118.1875 C-57.015 117.8575 -59.655 117.5275 -62.375 117.1875 C-62.705 116.1975 -63.035 115.2075 -63.375 114.1875 C-61.91657672 111.60224667 -60.40351897 109.12529627 -58.8125 106.625 C-54.73236412 100.06997755 -54.73236412 100.06997755 -54.6875 92.5625 C-55.40491982 90.36908111 -55.40491982 90.36908111 -56.375 88.1875 C-58.56230763 82.81433126 -58.79601631 77.91300683 -58.8125 72.1875 C-58.81636719 71.26428955 -58.82023438 70.3410791 -58.82421875 69.38989258 C-58.68719231 61.18186622 -56.86313792 54.59979308 -53.375 47.1875 C-63.43088333 59.73077941 -69.66857326 70.75248592 -68.375 87.1875 C-67.66221119 91.01515907 -66.72713359 94.78052385 -65.71020508 98.5378418 C-64.28092937 103.90528812 -64.28092937 103.90528812 -65.375 107.1875 C-69.18587296 107.0142785 -70.87571982 106.73083432 -73.5 103.875 C-79.62905909 93.08476573 -81.1667396 81.31393901 -78.0625 69.328125 C-72.47148358 51.91973298 -60.73726242 38.08433717 -46.375 27.1875 C-45.31931663 26.36846951 -44.26465733 25.54811764 -43.2109375 24.7265625 C-39.94925197 22.19105433 -36.66568229 19.68521101 -33.375 17.1875 C-32.33859375 16.39988281 -31.3021875 15.61226562 -30.234375 14.80078125 C-25.48404178 11.21367065 -20.70833876 7.66212566 -15.875 4.1875 C-14.71484375 3.3521875 -14.71484375 3.3521875 -13.53125 2.5 C-9.16099595 -0.16015464 -5.05812303 0.02524013 0 0 Z M-173.24609375 117.44140625 C-174.47708891 119.34540222 -174.95327299 120.97222136 -175.375 123.1875 C-174.7975 122.8575 -174.22 122.5275 -173.625 122.1875 C-171.375 121.1875 -171.375 121.1875 -167.375 121.1875 C-165.890625 122.71875 -165.890625 122.71875 -164.625 124.6875 C-164.19703125 125.3371875 -163.7690625 125.986875 -163.328125 126.65625 C-163.01359375 127.1615625 -162.6990625 127.666875 -162.375 128.1875 C-161.4778125 127.0428125 -161.4778125 127.0428125 -160.5625 125.875 C-156.94448229 121.43000681 -156.94448229 121.43000681 -155.375 120.1875 C-154.055 120.1875 -152.735 120.1875 -151.375 120.1875 C-148.9 124.6425 -148.9 124.6425 -146.375 129.1875 C-142.968789 124.0781835 -143.61070912 118.13507266 -144.375 112.1875 C-145.96381362 108.9348107 -146.86212436 108.76223735 -150.375 107.1875 C-160.52012541 105.22610909 -166.93925396 110.00036639 -173.24609375 117.44140625 Z M-232.375 229.1875 C-231.65291623 236.88972684 -226.42768121 242.80322029 -220.7109375 247.578125 C-216.57244302 250.42939545 -212.027743 252.3315345 -207.375 254.1875 C-207.045 253.5275 -206.715 252.8675 -206.375 252.1875 C-207.14100582 250.16824133 -207.14100582 250.16824133 -208.3125 248.0625 C-208.69277344 247.33804688 -209.07304687 246.61359375 -209.46484375 245.8671875 C-209.76519531 245.31289063 -210.06554687 244.75859375 -210.375 244.1875 C-211.035 244.1875 -211.695 244.1875 -212.375 244.1875 C-212.56320313 243.44886719 -212.75140625 242.71023438 -212.9453125 241.94921875 C-214.87295071 238.22561161 -217.66391941 236.87338019 -221.25 235 C-221.87519531 234.65775391 -222.50039062 234.31550781 -223.14453125 233.96289062 C-226.18837439 232.30583014 -229.26286691 230.71228883 -232.375 229.1875 Z " fill="#2040C1" transform="translate(365.375,92.8125)"></path><path d="M0 0 C2.83042237 0.02332001 5.65801326 0.03195296 8.48828125 0.02246094 C46.09614336 -0.08316422 46.09614336 -0.08316422 61.97070312 8.03271484 C63.1025 8.57154297 64.23429687 9.11037109 65.40039062 9.66552734 C82.92525698 18.89618214 97.55766851 37.11698167 103.59960938 55.99804688 C104.07977104 57.66979854 104.52836641 59.35055936 104.97070312 61.03271484 C105.67380615 60.89269043 106.37690918 60.75266602 107.10131836 60.60839844 C115.12303606 59.12704278 122.88552827 58.66657583 131.03320312 58.65771484 C132.22236328 58.63322266 133.41152344 58.60873047 134.63671875 58.58349609 C147.13486703 58.54231603 157.69007758 62.2246654 166.89648438 70.83349609 C169.97732006 74.14096797 169.97732006 74.14096797 170.97070312 76.03271484 C170.61914062 78.24365234 170.61914062 78.24365234 169.97070312 80.03271484 C164.81987475 79.91825199 161.88903735 78.5259761 157.59570312 75.65771484 C145.31283646 67.53571087 131.98351488 66.91384942 117.59960938 69.28662109 C112.84816214 70.26350637 108.14941204 71.41488511 103.47485352 72.71118164 C99.5380035 73.77626937 96.04540061 74.22135825 91.97070312 74.03271484 C92.38492281 69.2001518 94.43484298 67.20592266 97.97070312 64.03271484 C97.52339844 63.42685547 97.07609375 62.82099609 96.61523438 62.19677734 C92.91457922 57.06793757 89.81440527 51.98522914 87.08789062 46.28271484 C85.62936528 43.34526521 83.85776923 40.71113125 81.97070312 38.03271484 C81.33132812 37.02208984 80.69195312 36.01146484 80.03320312 34.97021484 C70.08853521 20.80659691 53.54034987 13.70635644 37.07617188 10.46240234 C24.69242451 8.74892787 11.95866383 8.87850334 -0.5256958 8.74661255 C-1.93005515 8.72919648 -3.33434888 8.7049895 -4.73846436 8.67355347 C-13.39880767 8.48975528 -20.28400352 9.01456547 -28.02929688 13.03271484 C-29.20492187 13.61021484 -30.38054687 14.18771484 -31.59179688 14.78271484 C-34.25630762 17.24226322 -34.45204862 17.85768806 -34.90429688 21.28271484 C-34.94554688 22.52021484 -34.98679687 23.75771484 -35.02929688 25.03271484 C-33.02987382 25.70110987 -31.02974518 26.3673946 -29.02929688 27.03271484 C-28.06354736 27.35401367 -27.09779785 27.6753125 -26.1027832 28.00634766 C-18.05614025 30.58714001 -10.03591563 32.3363071 -1.71679688 33.78271484 C0.12688477 34.11335938 0.12688477 34.11335938 2.0078125 34.45068359 C4.99424365 34.98521991 7.98175856 35.51245158 10.97070312 36.03271484 C10.64070313 37.68271484 10.31070313 39.33271484 9.97070312 41.03271484 C-6.51971882 45.03334975 -23.73245046 41.13546326 -38.57617188 33.69287109 C-42.55850056 30.99782381 -44.68151957 28.28471315 -45.96679688 23.65771484 C-46.06832159 17.76928162 -43.70012406 12.92843957 -39.81054688 8.51708984 C-28.00711871 -1.3191003 -14.35988967 -0.16521259 0 0 Z " fill="#1F3FBD" transform="translate(113.029296875,115.96728515625)"></path><path d="M0 0 C4.86300684 2.67653865 7.88773958 5.91550914 9.98828125 11.1484375 C13.01646953 22.16730764 10.70144785 33.11065175 5.625 43.0625 C2.31671061 48.69958525 -1.98826736 53.81496582 -8.125 56.375 C-10.875 56.5 -10.875 56.5 -13.125 56.375 C-13.455 55.385 -13.785 54.395 -14.125 53.375 C-14.66253906 53.69855469 -15.20007813 54.02210938 -15.75390625 54.35546875 C-18.65764949 55.60403051 -20.90778341 55.67556538 -24.0625 55.6875 C-25.08214844 55.70425781 -26.10179687 55.72101563 -27.15234375 55.73828125 C-30.57306524 55.32024301 -32.38252969 54.43658113 -35.125 52.375 C-37.17677487 49.73532402 -39.125 46.79179822 -39.125 43.375 C-40.115 44.035 -41.105 44.695 -42.125 45.375 C-44.8125 45 -44.8125 45 -47.125 44.375 C-46.25355135 37.12368653 -42.74668782 31.58791733 -39.125 25.375 C-38.73038574 24.69421387 -38.33577148 24.01342773 -37.92919922 23.31201172 C-36.67908089 21.17588243 -35.4065001 19.05493172 -34.125 16.9375 C-33.73449463 16.27572754 -33.34398926 15.61395508 -32.94165039 14.93212891 C-29.21333186 8.89929553 -24.38369405 4.06549502 -17.875 1.0625 C-17.23046875 0.75699219 -16.5859375 0.45148438 -15.921875 0.13671875 C-10.36754803 -2.2178329 -5.53467427 -2.52146786 0 0 Z M-13.8125 8.375 C-14.62074219 8.74625 -15.42898438 9.1175 -16.26171875 9.5 C-16.87660156 9.78875 -17.49148438 10.0775 -18.125 10.375 C-18.125 11.035 -18.125 11.695 -18.125 12.375 C-19.115 12.705 -20.105 13.035 -21.125 13.375 C-21.125 14.035 -21.125 14.695 -21.125 15.375 C-21.785 15.375 -22.445 15.375 -23.125 15.375 C-26.23795959 19.3260641 -26.66503936 22.42463918 -26.125 27.375 C-24.66830479 29.5627301 -24.66830479 29.5627301 -23.125 31.375 C-22.44953125 30.7253125 -21.7740625 30.075625 -21.078125 29.40625 C-20.18609375 28.5709375 -19.2940625 27.735625 -18.375 26.875 C-17.49328125 26.0396875 -16.6115625 25.204375 -15.703125 24.34375 C-13.125 22.375 -13.125 22.375 -9.125 22.375 C-6.87520412 25.97825874 -6.82603193 29.05510034 -6.8125 33.25 C-6.79574219 34.44367188 -6.77898437 35.63734375 -6.76171875 36.8671875 C-7.15476532 40.66241132 -8.35825878 43.03619979 -10.125 46.375 C-9.795 47.035 -9.465 47.695 -9.125 48.375 C-7.82358519 46.67408111 -6.53427835 44.96389459 -5.25 43.25 C-4.53070313 42.29867187 -3.81140625 41.34734375 -3.0703125 40.3671875 C1.37048913 33.53655688 2.99385535 24.45221605 1.875 16.375 C0.5978806 12.6230482 -0.63934939 9.30798858 -4.078125 7.1484375 C-7.92172954 5.69608311 -10.26357427 6.7291214 -13.8125 8.375 Z M-13.125 50.375 C-12.125 52.375 -12.125 52.375 -12.125 52.375 Z " fill="#1F40C0" transform="translate(274.125,200.625)"></path><path d="M0 0 C1.32 0.33 2.64 0.66 4 1 C4 4.38023517 3.12544378 6.83468937 2 10 C2.66 10.33 3.32 10.66 4 11 C4.99 9.35 5.98 7.7 7 6 C8.32 6.33 9.64 6.66 11 7 C10.45276317 10.37462715 9.9451 12.08235 8 15 C9.32 15.33 10.64 15.66 12 16 C13.32 14.02 14.64 12.04 16 10 C17.32 10.66 18.64 11.32 20 12 C19.36934243 15.21852831 18.21979305 17.50801069 16.4375 20.25 C15.98246094 20.95640625 15.52742188 21.6628125 15.05859375 22.390625 C14.53458984 23.18726563 14.53458984 23.18726563 14 24 C10.1878265 23.35861536 7.56235352 21.56383422 4.375 19.4375 C0.96038771 16.87592791 0.96038771 16.87592791 -3 16 C-3.66 17.32 -4.32 18.64 -5 20 C1.435 24.95 1.435 24.95 8 30 C7.34 31.32 6.68 32.64 6 34 C1.03173206 34 0.05979099 32.74572241 -3.625 29.5625 C-7.09735865 26.45945796 -7.09735865 26.45945796 -11 24 C-11.99 26.475 -11.99 26.475 -13 29 C-9.04 32.63 -5.08 36.26 -1 40 C-1.99 42.475 -1.99 42.475 -3 45 C-9.67058341 41.92941399 -16.36843272 36.71226631 -21 31 C-21 28.75 -21 28.75 -20 27 C-19.01 26.67 -18.02 26.34 -17 26 C-16.29323718 24.34993681 -15.63264881 22.67987431 -15 21 C-13.89129201 19.35524215 -12.72261657 17.74944447 -11.5 16.1875 C-10.8915625 15.39730469 -10.283125 14.60710937 -9.65625 13.79296875 C-9.1096875 13.20128906 -8.563125 12.60960937 -8 12 C-7.34 12 -6.68 12 -6 12 C-5.83177734 11.14148438 -5.83177734 11.14148438 -5.66015625 10.265625 C-4.92776966 7.75210888 -3.86145147 5.94069457 -2.4375 3.75 C-1.98246094 3.04359375 -1.52742188 2.3371875 -1.05859375 1.609375 C-0.70925781 1.07828125 -0.35992187 0.5471875 0 0 Z " fill="#1C3AAF" transform="translate(386,324)"></path><path d="M0 0 C-0.08121094 0.65226562 -0.16242188 1.30453125 -0.24609375 1.9765625 C-0.72755237 7.34165448 -0.72755237 7.34165448 1.55859375 12 C3.31284882 13.46835032 5.0631868 14.7845509 7 16 C5.6328125 17.515625 5.6328125 17.515625 4 19 C1.86254078 18.74853421 0.54074221 18.54074221 -1 17 C-1.07637695 17.61351318 -1.15275391 18.22702637 -1.23144531 18.85913086 C-2 21 -2 21 -3.87011719 22.23266602 C-4.67094727 22.56967529 -5.47177734 22.90668457 -6.296875 23.25390625 C-7.1734375 23.63353516 -8.05 24.01316406 -8.953125 24.40429688 C-9.87609375 24.78650391 -10.7990625 25.16871094 -11.75 25.5625 C-13.5584704 26.33187058 -15.36579933 27.1039308 -17.171875 27.87890625 C-18.01814453 28.24000488 -18.86441406 28.60110352 -19.73632812 28.97314453 C-22.28360031 30.12864785 -24.62082905 31.53409349 -27 33 C-27.66 33 -28.32 33 -29 33 C-30.3410005 30.5664433 -31.67294856 28.12864699 -33 25.6875 C-33.3815625 24.99720703 -33.763125 24.30691406 -34.15625 23.59570312 C-37 18.33984375 -37 18.33984375 -37 15 C-35.35 14.67 -33.7 14.34 -32 14 C-31.15885829 15.43294498 -30.32734313 16.87154405 -29.5 18.3125 C-29.0359375 19.11300781 -28.571875 19.91351563 -28.09375 20.73828125 C-27 23 -27 23 -27 26 C-25.02 25.01 -23.04 24.02 -21 23 C-22.65 18.71 -24.3 14.42 -26 10 C-13.27603583 3.35526316 -13.27603583 3.35526316 -8 3 C-7.34 3.66 -6.68 4.32 -6 5 C-5.87625 4.360625 -5.7525 3.72125 -5.625 3.0625 C-5.315625 2.0415625 -5.315625 2.0415625 -5 1 C-3 0 -3 0 0 0 Z M-13 7 C-13 7.99 -13 8.98 -13 10 C-14.65 10.33 -16.3 10.66 -18 11 C-18 11.99 -18 12.98 -18 14 C-16.02 13.34 -14.04 12.68 -12 12 C-12 13.32 -12 14.64 -12 16 C-14 17.75 -14 17.75 -16 19 C-15.34 19.66 -14.68 20.32 -14 21 C-11.69 19.68 -9.38 18.36 -7 17 C-6.49620971 14.71305777 -6.49620971 14.71305777 -7 12 C-8.83961648 10.00977164 -10.79186148 8.61010101 -13 7 Z " fill="#1D3BB1" transform="translate(168,39)"></path><path d="M0 0 C1.47265625 2.01171875 1.47265625 2.01171875 3.0625 4.6875 C3.58972656 5.55761719 4.11695312 6.42773438 4.66015625 7.32421875 C5.96952208 9.93913302 6.4375001 12.15789523 7 15 C8.96758273 16.36020151 8.96758273 16.36020151 11 17 C11 20 11 20 9.6875 21.38671875 C8.125 22.59114583 6.5625 23.79557292 5 25 C6.32 25.66 7.64 26.32 9 27 C10.98 25.68 12.96 24.36 15 23 C18 26.75 18 26.75 18 29 C16.70374418 29.91088247 15.39552009 30.8068777 14.05078125 31.64453125 C10.41360323 34.04853272 7.02236533 36.80748251 3.5859375 39.48828125 C1 41 1 41 -1.3359375 40.73046875 C-1.88507813 40.48941406 -2.43421875 40.24835938 -3 40 C-3 38.68 -3 37.36 -3 36 C-0.5 33.75 -0.5 33.75 2 32 C1.67 31.01 1.34 30.02 1 29 C-2.0831351 30.19899698 -5.06279492 31.47700477 -8 33 C-8.99 31.35 -9.98 29.7 -11 28 C-10.0615625 27.31292969 -9.123125 26.62585938 -8.15625 25.91796875 C-6.93712544 25.00831427 -5.71839571 24.09813047 -4.5 23.1875 C-3.87996094 22.73568359 -3.25992188 22.28386719 -2.62109375 21.81835938 C-1.02466038 20.61664854 0.49417079 19.31346367 2 18 C2 17.01 2 16.02 2 15 C1.34 14.34 0.68 13.68 0 13 C-0.89203125 13.58910156 -1.7840625 14.17820312 -2.703125 14.78515625 C-3.88499379 15.54492904 -5.06730906 16.30400763 -6.25 17.0625 C-7.12978516 17.64741211 -7.12978516 17.64741211 -8.02734375 18.24414062 C-12.39524424 21.01702127 -12.39524424 21.01702127 -15.359375 20.93359375 C-17 20 -17 20 -18 17 C-16.44210317 15.86863414 -14.87846143 14.74517679 -13.3125 13.625 C-12.44238281 12.99851562 -11.57226562 12.37203125 -10.67578125 11.7265625 C-8.16403048 10.10584157 -5.80700813 9.00141912 -3 8 C-3.66 6.02 -4.32 4.04 -5 2 C-2 0 -2 0 0 0 Z " fill="#1C3AAF" transform="translate(71,319)"></path><path d="M0 0 C1.67542976 0.28604898 3.34385343 0.61781233 5 1 C4.32599282 4.91114026 2.45743967 7.87119182 0.4375 11.25 C-0.20316406 12.32765625 -0.84382813 13.4053125 -1.50390625 14.515625 C-1.99761719 15.33546875 -2.49132812 16.1553125 -3 17 C-0.28395285 19.87420123 -0.28395285 19.87420123 3 22 C3.061875 21.46375 3.12375 20.9275 3.1875 20.375 C4.59741368 16.25371387 7.4470729 13.19057744 10.875 10.5625 C14.15880016 9.69325878 16.72823386 10.22667346 20 11 C22.51496267 12.59280969 22.93726476 13.83531999 24 16.625 C24 22.70070777 20.65083725 27.26450442 16.5625 31.5625 C13.30528212 33.38971978 11.68286328 33.67644428 8 33 C4.57803526 30.91498892 2.29590239 28.88770717 1 25 C-0.32 25 -1.64 25 -3 25 C-5.140625 23.90625 -5.140625 23.90625 -7.25 22.5 C-8.30960937 21.80390625 -8.30960937 21.80390625 -9.390625 21.09375 C-9.92171875 20.7328125 -10.4528125 20.371875 -11 20 C-10.47322577 15.0708983 -8.1901882 11.76446042 -5.5 7.75 C-5.08363281 7.11320312 -4.66726563 6.47640625 -4.23828125 5.8203125 C-1.2019604 1.2019604 -1.2019604 1.2019604 0 0 Z M14 15 C13.67 15.99 13.34 16.98 13 18 C12.34 18 11.68 18 11 18 C8.82635074 20.81769349 7.91322979 22.2190681 8.3125 25.8125 C8.539375 26.534375 8.76625 27.25625 9 28 C11.41345489 27.60723218 12.73045526 27.25776515 14.51953125 25.546875 C17.39235863 21.71092402 17.39235863 21.71092402 17.8125 17.0625 C17.544375 16.381875 17.27625 15.70125 17 15 C16.01 15 15.02 15 14 15 Z " fill="#1D3AB0" transform="translate(334,54)"></path><path d="M0 0 C1.65 0.33 3.3 0.66 5 1 C5.33 5.95 5.66 10.9 6 16 C8.64 10.72 11.28 5.44 14 0 C23.71830986 2.95774648 23.71830986 2.95774648 26 6 C26.38567013 10.04953637 26.50238217 12.74404458 25 16.5 C21.89882675 18.82587993 18.74639041 18.46074559 15 18 C14.01 17.67 13.02 17.34 12 17 C11.67 18.65 11.34 20.3 11 22 C8.83032311 22.95465783 7.43671207 23.14401212 5.17578125 22.3984375 C3.4315257 21.64129615 1.71372869 20.82390802 0 20 C0 18.35 0 16.7 0 15 C-1.65 14.67 -3.3 14.34 -5 14 C-5.33 14.99 -5.66 15.98 -6 17 C-8.475 16.01 -8.475 16.01 -11 15 C-9.3718356 11.24269753 -6.98598083 8.383177 -4.375 5.25 C-3.55773437 4.26515625 -2.74046875 3.2803125 -1.8984375 2.265625 C-1.27195312 1.51796875 -0.64546875 0.7703125 0 0 Z M17 7 C16.34 8.65 15.68 10.3 15 12 C17.475 12.495 17.475 12.495 20 13 C20.33 11.35 20.66 9.7 21 8 C19.68 7.67 18.36 7.34 17 7 Z M-1 9 C0 11 0 11 0 11 Z " fill="#1D3CB5" transform="translate(296,41)"></path><path d="M0 0 C7.59 1.32 15.18 2.64 23 4 C22.67 5.98 22.34 7.96 22 10 C20.02 10 18.04 10 16 10 C17.65 10.99 19.3 11.98 21 13 C20.67 14.32 20.34 15.64 20 17 C18.02 17.33 16.04 17.66 14 18 C15.98 18.66 17.96 19.32 20 20 C19.67 21.65 19.34 23.3 19 25 C11.24548194 24.41993763 3.65257723 23.37559416 -4 22 C-4 20.02 -4 18.04 -4 16 C0.6064592 13.77106813 4.96133223 13.45122398 10 13 C6.04 11.02 2.08 9.04 -2 7 C-1.34 4.69 -0.68 2.38 0 0 Z " fill="#1D3CB5" transform="translate(30,183)"></path><path d="M0 0 C2.31 0.33 4.62 0.66 7 1 C7.99 4.3 8.98 7.6 10 11 C12.18975773 7.71536341 12.99806563 4.79303725 14 1 C16.31 1 18.62 1 21 1 C21 8.59 21 16.18 21 24 C19.02 24 17.04 24 15 24 C14.67 22.68 14.34 21.36 14 20 C13.34 21.32 12.68 22.64 12 24 C10.68 24 9.36 24 8 24 C7.34 22.02 6.68 20.04 6 18 C5.67 19.98 5.34 21.96 5 24 C3.35 24 1.7 24 0 24 C0 16.08 0 8.16 0 0 Z " fill="#1F3FBD" transform="translate(217,412)"></path><path d="M0 0 C3.06277267 0.14126626 6.12513542 0.28784396 9.1875 0.4375 C10.05181641 0.47681641 10.91613281 0.51613281 11.80664062 0.55664062 C13.06831055 0.61948242 13.06831055 0.61948242 14.35546875 0.68359375 C15.51018677 0.73858032 15.51018677 0.73858032 16.68823242 0.79467773 C19.14869654 1.01320665 21.57781914 1.51556383 24 2 C23.67 9.26 23.34 16.52 23 24 C17.68796917 24 16.58190845 23.46437347 12.375 20.625 C10.96347656 19.68527344 10.96347656 19.68527344 9.5234375 18.7265625 C8.69070312 18.15679687 7.85796875 17.58703125 7 17 C6.01 16.34 5.02 15.68 4 15 C4 17.97 4 20.94 4 24 C2.68 24 1.36 24 0 24 C0 18.72 0 13.44 0 8 C5.49911797 8.91651966 7.47750863 9.6129631 11.875 12.5625 C12.84179688 13.20316406 13.80859375 13.84382812 14.8046875 14.50390625 C15.52914062 14.99761719 16.25359375 15.49132812 17 16 C17.33 13.36 17.66 10.72 18 8 C12.06 7.34 6.12 6.68 0 6 C0 4.02 0 2.04 0 0 Z " fill="#1F3FBE" transform="translate(25,208)"></path><path d="M0 0 C1.77734375 0.171875 1.77734375 0.171875 4 1 C5.81640625 3.328125 5.81640625 3.328125 7.5625 6.25 C8.14128906 7.20390625 8.72007812 8.1578125 9.31640625 9.140625 C9.87199219 10.08421875 10.42757813 11.0278125 11 12 C11.57234375 12.89589844 12.1446875 13.79179687 12.734375 14.71484375 C14 17 14 17 13.6875 19.3125 C13.460625 19.869375 13.23375 20.42625 13 21 C11.265625 21.65234375 11.265625 21.65234375 9 22 C6.859375 21.00390625 6.859375 21.00390625 4.75 19.5625 C4.04359375 19.08941406 3.3371875 18.61632812 2.609375 18.12890625 C2.07828125 17.75636719 1.5471875 17.38382812 1 17 C1.66 18.11375 2.32 19.2275 3 20.375 C5 23.75 5 23.75 5 26 C3.35 26.66 1.7 27.32 0 28 C-1.87861956 25.28693529 -3.72323065 22.55236165 -5.5625 19.8125 C-6.09552734 19.04357422 -6.62855469 18.27464844 -7.17773438 17.48242188 C-7.67724609 16.73154297 -8.17675781 15.98066406 -8.69140625 15.20703125 C-9.15748291 14.5210083 -9.62355957 13.83498535 -10.10375977 13.12817383 C-11.25490847 10.39470522 -10.80656798 8.80052384 -10 6 C-6.15185513 5.41694775 -4.23691365 6.2997117 -1.1875 8.5 C-0.11635945 9.32219744 0.9491359 10.15204049 2 11 C1.29875 9.9275 0.5975 8.855 -0.125 7.75 C-1.2421875 5.82421875 -1.2421875 5.82421875 -2 4 C-1.25 1.5625 -1.25 1.5625 0 0 Z " fill="#1D3BB3" transform="translate(330,382)"></path><path d="M0 0 C2.12920343 2.74860807 2.17154423 5.25603268 2.2890625 8.6640625 C1.1640625 11.5390625 1.1640625 11.5390625 -0.7109375 13.6640625 C-3.3984375 14.4765625 -3.3984375 14.4765625 -5.7109375 14.6640625 C-5.7109375 13.0140625 -5.7109375 11.3640625 -5.7109375 9.6640625 C-4.7209375 9.3340625 -3.7309375 9.0040625 -2.7109375 8.6640625 C-3.0409375 7.6740625 -3.3709375 6.6840625 -3.7109375 5.6640625 C-6.35552129 4.34177061 -8.38855051 4.56729056 -11.3359375 4.6015625 C-12.84027344 4.61509766 -12.84027344 4.61509766 -14.375 4.62890625 C-15.53128906 4.64630859 -15.53128906 4.64630859 -16.7109375 4.6640625 C-16.7109375 6.3140625 -16.7109375 7.9640625 -16.7109375 9.6640625 C-15.7209375 9.6640625 -14.7309375 9.6640625 -13.7109375 9.6640625 C-13.7109375 8.6740625 -13.7109375 7.6840625 -13.7109375 6.6640625 C-12.0609375 6.6640625 -10.4109375 6.6640625 -8.7109375 6.6640625 C-8.61328125 12.81640625 -8.61328125 12.81640625 -8.7109375 14.6640625 C-10.29016156 16.24328656 -11.90537624 15.8717215 -14.0859375 15.9140625 C-14.87742187 15.93984375 -15.66890625 15.965625 -16.484375 15.9921875 C-19.24509705 15.58534425 -20.05827178 14.87781844 -21.7109375 12.6640625 C-22.73091595 8.72985992 -23.13697504 6.57700008 -21.3984375 2.8515625 C-18.2638289 -1.21181902 -18.2638289 -1.21181902 -14.6484375 -2.0234375 C-3.70385964 -2.89205479 -3.70385964 -2.89205479 0 0 Z " fill="#1D3AB0" transform="translate(433.7109375,217.3359375)"></path><path d="M0 0 C3.84494226 0.75525652 5.179954 1.80454738 7.43359375 4.98046875 C10.56218107 9.98850046 12.48682285 13.65691591 11.5 19.6875 C8.65615888 22.86989363 6.64793375 24.40051656 2.5 25.4375 C-1.97463726 24.31884068 -3.98187547 21.41917852 -6.5 17.6875 C-8.74055033 13.7952129 -9.34218615 10.11775006 -8.5 5.6875 C-5.92740402 1.94554221 -4.46171566 0.87640843 0 0 Z M-1.5 5.6875 C-2.16 6.3475 -2.82 7.0075 -3.5 7.6875 C-3.15684171 11.80539952 -1.58709655 15.15549045 0.5 18.6875 C1.49 19.0175 2.48 19.3475 3.5 19.6875 C4.16 19.3575 4.82 19.0275 5.5 18.6875 C5.06744475 13.28055933 3.91778487 9.93383878 0.5 5.6875 C-0.16 5.6875 -0.82 5.6875 -1.5 5.6875 Z " fill="#1D3AB1" transform="translate(313.5,392.3125)"></path><path d="M0 0 C3.2883921 2.71292348 3.90851499 4.34816929 4.5 8.5625 C3.93142525 12.47145142 3.0580633 13.61088804 0 16 C-1.5625 14.875 -1.5625 14.875 -3 13 C-2.6875 9.8125 -2.6875 9.8125 -2 7 C-6.05606165 7.46800711 -9.46588679 7.87953208 -13 10 C-13 11.32 -13 12.64 -13 14 C-12.01 13.67 -11.02 13.34 -10 13 C-10 12.01 -10 11.02 -10 10 C-9.01 9.67 -8.02 9.34 -7 9 C-5.68 11.31 -4.36 13.62 -3 16 C-5.35468455 18.72647685 -7.5408417 19.98756342 -11 21 C-14.31475368 20.70752173 -15.88582428 19.51687586 -18 17 C-19.66134333 13.67731333 -20.04644242 10.52520292 -19 7 C-13.691282 2.00167076 -7.37592383 -1.26819244 0 0 Z " fill="#1D3BB2" transform="translate(414,140)"></path><path d="M0 0 C0.99 0.66 1.98 1.32 3 2 C3 2.66 3 3.32 3 4 C3.58265625 4.25265625 4.1653125 4.5053125 4.765625 4.765625 C8.72959024 6.95550789 11.45492262 10.29995544 14 14 C14.75 17.1875 14.75 17.1875 14 20 C11.41636715 23.60142761 9.94815425 24.82760832 5.5625 25.625 C-1.9315732 24.31025032 -6.33169048 17.56606135 -11 12 C-10.34 10.68 -9.68 9.36 -9 8 C-4.68918975 8.47118159 -2.75119232 11.01030188 0.125 14.0625 C1.7138359 15.74327151 3.33146296 17.39832072 5 19 C5.66 19 6.32 19 7 19 C6.52590352 14.68269587 3.96603297 12.66352539 0.9375 9.75 C0.01839844 8.85796875 -0.90070313 7.9659375 -1.84765625 7.046875 C-2.55792969 6.37140625 -3.26820313 5.6959375 -4 5 C-2.68 3.35 -1.36 1.7 0 0 Z " fill="#1C3AAE" transform="translate(363,355)"></path><path d="M0 0 C2.5620785 3.64902089 2.71026088 5.56511404 2.0625 9.9375 C0.5155279 12.25795815 -0.47645974 12.79260163 -3.125 13.625 C-3.723125 13.728125 -4.32125 13.83125 -4.9375 13.9375 C-5.2675 12.2875 -5.5975 10.6375 -5.9375 8.9375 C-4.9475 8.6075 -3.9575 8.2775 -2.9375 7.9375 C-2.9375 6.6175 -2.9375 5.2975 -2.9375 3.9375 C-9.97957705 4.6562807 -9.97957705 4.6562807 -16.9375 5.9375 C-16.67073796 7.92241642 -16.67073796 7.92241642 -15.9375 9.9375 C-14.9475 10.2675 -13.9575 10.5975 -12.9375 10.9375 C-12.9375 9.6175 -12.9375 8.2975 -12.9375 6.9375 C-11.6175 6.6075 -10.2975 6.2775 -8.9375 5.9375 C-8.2775 8.9075 -7.6175 11.8775 -6.9375 14.9375 C-15.08035714 17.65178571 -15.08035714 17.65178571 -18.9375 15.9375 C-21.40107872 12.48848979 -21.95654547 10.49934138 -21.8125 6.25 C-20.57148693 1.55187908 -20.57148693 1.55187908 -17.9375 -0.0625 C-5.63676906 -3.95773147 -5.63676906 -3.95773147 0 0 Z " fill="#1D3BB3" transform="translate(428.9375,181.0625)"></path><path d="M0 0 C0.6875 2.0625 0.6875 2.0625 1 4 C-0.55961362 4.96302356 -2.12283225 5.92021004 -3.6875 6.875 C-4.99267578 7.67550781 -4.99267578 7.67550781 -6.32421875 8.4921875 C-8.83391082 9.90640814 -11.30299069 10.99894789 -14 12 C-14 13.32 -14 14.64 -14 16 C-9.05734753 14.00190645 -4.57231262 11.66287551 -0.015625 8.890625 C2 8 2 8 5 9 C5.6875 11.0625 5.6875 11.0625 6 13 C3.79799468 14.32421964 1.58938174 15.63426729 -0.625 16.9375 C-1.24246094 17.31068359 -1.85992187 17.68386719 -2.49609375 18.06835938 C-6.29006708 20.28483853 -9.50646077 21.8124998 -14 22 C-16.981088 19.7476224 -18.61002792 17.9749302 -20 14.5 C-20 11.08358197 -19.03518937 9.74914693 -17 7 C-14.6672436 5.36819204 -12.47751536 3.98052582 -10 2.625 C-9.05640625 2.07392578 -9.05640625 2.07392578 -8.09375 1.51171875 C-3.3890588 -1.12968627 -3.3890588 -1.12968627 0 0 Z " fill="#1D3BB1" transform="translate(406,122)"></path><path d="M0 0 C2.9375 2.0625 2.9375 2.0625 5 5 C6.02776186 10.93817965 4.07674353 15.96897312 1 21 C-1.90968345 23.60340099 -3.1735537 24.01686625 -7.0625 23.9375 C-10.55920198 22.82153128 -11.95694308 22.06458538 -14 19 C-14.8643447 12.62545786 -13.39450155 7.47207273 -10 2 C-6.24952518 -0.50031654 -4.44143734 -0.53603554 0 0 Z M-5 5 C-5.70180531 6.4096347 -6.38593958 7.82807641 -7.0625 9.25 C-7.44535156 10.03890625 -7.82820312 10.8278125 -8.22265625 11.640625 C-9.08564091 14.25993522 -8.93045933 15.44855176 -8 18 C-6.68 18 -5.36 18 -4 18 C-0.86702628 12.82975082 -0.86702628 12.82975082 -0.25 7 C-0.4975 6.34 -0.745 5.68 -1 5 C-2.32 5 -3.64 5 -5 5 Z " fill="#1E3CB6" transform="translate(168,401)"></path><path d="M0 0 C3.5625 1 3.5625 1 6.0625 3.125 C7.9999623 6.83846941 7.50446798 8.99663607 6.5625 13 C4.125 12.3125 4.125 12.3125 1.5625 11 C0.75 8.375 0.75 8.375 0.5625 6 C-0.44861093 9.04913228 -0.44861093 9.04913228 0.5625 12 C0.92122645 15.87424565 1.12960729 18.14933906 -1.0625 21.4375 C-4.21713477 23.51291762 -5.73076397 23.75647674 -9.4375 23 C-13.1344602 19.77499217 -13.1344602 19.77499217 -14.4375 17 C-14.375 13.1875 -14.375 13.1875 -13.4375 10 C-12.7775 9.67 -12.1175 9.34 -11.4375 9 C-10.1175 10.32 -8.7975 11.64 -7.4375 13 C-7.7675 13.99 -8.0975 14.98 -8.4375 16 C-7.4475 16 -6.4575 16 -5.4375 16 C-5.788125 14.96875 -6.13875 13.9375 -6.5 12.875 C-7.60432706 8.31044816 -7.70054289 5.17524053 -5.3125 1.0625 C-3.4375 0 -3.4375 0 0 0 Z " fill="#1C3AAE" transform="translate(106.4375,366)"></path><path d="M0 0 C0.66 0.99 1.32 1.98 2 3 C0.8125 4.5625 0.8125 4.5625 -1 6 C-3.6875 5.6875 -3.6875 5.6875 -6 5 C-6 5.99 -6 6.98 -6 8 C-4.89591797 7.80470703 -4.89591797 7.80470703 -3.76953125 7.60546875 C4.18284498 6.48142085 4.18284498 6.48142085 8.25 9.0625 C10 12 10 12 10.125 15.0625 C8.71396422 18.7468712 7.40681227 20.03161958 4 22 C-0.13530644 22.49623677 -1.48746854 22.34168764 -5 20 C-4.1875 18.0625 -4.1875 18.0625 -3 16 C-2.01 15.67 -1.02 15.34 0 15 C0 15.66 0 16.32 0 17 C0.99 16.67 1.98 16.34 3 16 C3.33 15.01 3.66 14.02 4 13 C3.25234375 13.09539062 2.5046875 13.19078125 1.734375 13.2890625 C0.74953125 13.39992188 -0.2353125 13.51078125 -1.25 13.625 C-2.22453125 13.74101562 -3.1990625 13.85703125 -4.203125 13.9765625 C-7.16407363 14.00137492 -8.56714398 13.64050383 -11 12 C-12.42041821 9.15916359 -12.31452272 7.14522722 -12 4 C-8.87795612 -0.94323614 -5.35424916 -0.604512 0 0 Z " fill="#1C39AD" transform="translate(354,370)"></path><path d="M0 0 C4.13968886 3.03025224 6.32721429 7.71347813 8.75 12.125 C9.16121094 12.85332031 9.57242187 13.58164062 9.99609375 14.33203125 C13 19.7310787 13 19.7310787 13 22 C11.02 22.33 9.04 22.66 7 23 C6.34 22.01 5.68 21.02 5 20 C2.41619823 19.74969023 2.41619823 19.74969023 0 20 C0 21.65 0 23.3 0 25 C-1.98 25.33 -3.96 25.66 -6 26 C-5.34 17.75 -4.68 9.5 -4 1 C-2.68 0.67 -1.36 0.34 0 0 Z M1 11 C1 12.32 1 13.64 1 15 C1.66 15 2.32 15 3 15 C2.34 13.68 1.68 12.36 1 11 Z " fill="#1E3CB5" transform="translate(273,407)"></path><path d="M0 0 C3.21043882 1.38188453 5.04936365 2.92421903 7.25 5.625 C7.77078125 6.25664062 8.2915625 6.88828125 8.828125 7.5390625 C9.40820312 8.26222656 9.40820312 8.26222656 10 9 C9.34 10.32 8.68 11.64 8 13 C5.33333333 11.66666667 2.66666667 10.33333333 0 9 C-0.18490007 11.32357511 -0.18490007 11.32357511 2 14 C1.625 16.1875 1.625 16.1875 1 18 C-1.96175123 17.38722388 -3.38058783 16.74627478 -6 15 C-6.66 15.66 -7.32 16.32 -8 17 C-6.68 18.65 -5.36 20.3 -4 22 C-4.66 23.32 -5.32 24.64 -6 26 C-10.17882671 23.43571997 -13.12505529 20.98069267 -16 17 C-14.66198588 13.9350908 -13.29092019 12.14639067 -10.6875 10.0625 C-7.61011239 7.53006645 -4.78094344 4.86039897 -2 2 C-1.34 1.34 -0.68 0.68 0 0 Z " fill="#1C3AAF" transform="translate(89,348)"></path><path d="M0 0 C-0.33 1.65 -0.66 3.3 -1 5 C-1.99 5.33 -2.98 5.66 -4 6 C-4.66 5.67 -5.32 5.34 -6 5 C-6.33 5.99 -6.66 6.98 -7 8 C-5.96875 7.649375 -4.9375 7.29875 -3.875 6.9375 C0.0501906 5.98785711 2.18080777 5.78480247 6 7 C7.9375 8.625 7.9375 8.625 9 11 C8.93480059 14.71636626 8.79890124 17.04746391 6.375 19.9375 C3.13276702 21.38797265 0.51055666 21.26004123 -3 21 C-3.66 20.67 -4.32 20.34 -5 20 C-5 19.01 -5 18.02 -5 17 C-2.09399739 15.74335022 -0.20395416 15 3 15 C3.33 14.34 3.66 13.68 4 13 C2.53626953 13.06960937 2.53626953 13.06960937 1.04296875 13.140625 C-0.22933594 13.17671875 -1.50164062 13.2128125 -2.8125 13.25 C-4.07707031 13.29640625 -5.34164062 13.3428125 -6.64453125 13.390625 C-10 13 -10 13 -11.94921875 11.20703125 C-13.57497503 7.79233869 -13.03774527 5.56724938 -12 2 C-8.1111345 -1.6601087 -5.00521375 -1.07955591 0 0 Z " fill="#1D3AB1" transform="translate(101,77)"></path><path d="M0 0 C1.63197842 0.73469139 3.25541307 1.48838122 4.875 2.25 C6.23238281 2.87648438 6.23238281 2.87648438 7.6171875 3.515625 C10.23962636 5.14927544 11.04536442 6.09678473 12 9 C11.68533358 12.85466368 11.16750011 14.74874983 9 18 C5.07989501 18.87113444 1.82977542 19.37871915 -2 18 C-2.99 19.98 -3.98 21.96 -5 24 C-7.475 23.01 -7.475 23.01 -10 22 C-9.5097542 16.34880296 -7.25848055 12.40295481 -4.4375 7.625 C-4.01275391 6.88894531 -3.58800781 6.15289062 -3.15039062 5.39453125 C-2.10843859 3.59160301 -1.05533146 1.79512947 0 0 Z M3 7 C0.7226499 9.81509993 0.7226499 9.81509993 1 13 C1.99 13.33 2.98 13.66 4 14 C4.66 13.34 5.32 12.68 6 12 C5.83333333 9.91666667 5.83333333 9.91666667 5 8 C4.34 7.67 3.68 7.34 3 7 Z " fill="#1D3AB1" transform="translate(138,388)"></path><path d="M0 0 C3.17896089 2.14794655 3.90744986 3.7060172 5.0625 7.375 C4.97737536 12.31222895 3.42319759 13.57680241 0 17 C0.99 18.32 1.98 19.64 3 21 C2.34 22.32 1.68 23.64 1 25 C-0.32 25 -1.64 25 -3 25 C-4.46386719 23.37939453 -4.46386719 23.37939453 -5.796875 21.1328125 C-6.52197266 19.92818359 -6.52197266 19.92818359 -7.26171875 18.69921875 C-7.75285156 17.84972656 -8.24398437 17.00023438 -8.75 16.125 C-9.25660156 15.28324219 -9.76320313 14.44148438 -10.28515625 13.57421875 C-14 7.31605879 -14 7.31605879 -14 5 C-9.83585904 1.51226773 -5.5390365 -1.13298474 0 0 Z M-6 6 C-5.65555119 8.47266765 -5.65555119 8.47266765 -5 11 C-4.34 11.33 -3.68 11.66 -3 12 C-2.34 11.67 -1.68 11.34 -1 11 C-1.33 9.35 -1.66 7.7 -2 6 C-3.32 6 -4.64 6 -6 6 Z " fill="#1D3BB1" transform="translate(127,55)"></path><path d="M0 0 C3 3.1 3 3.1 3 6 C0.6875 6.625 0.6875 6.625 -2 7 C-2.99 6.34 -3.98 5.68 -5 5 C-5 5.99 -5 6.98 -5 8 C-4.44570312 8.17015625 -3.89140625 8.3403125 -3.3203125 8.515625 C2.55164684 10.47991033 2.55164684 10.47991033 4.5625 12.8125 C5.16746095 15.83730476 4.83603601 18.04171872 4 21 C0.30211684 23.46525544 -2.70970164 23.56110542 -7 23 C-9.5 21.75 -9.5 21.75 -11 20 C-11 18.68 -11 17.36 -11 16 C-9.02 16 -7.04 16 -5 16 C-4.67 16.66 -4.34 17.32 -4 18 C-3.34 18 -2.68 18 -2 18 C-1.67 17.01 -1.34 16.02 -1 15 C-1.62648437 14.80664062 -2.25296875 14.61328125 -2.8984375 14.4140625 C-3.71570313 14.15367188 -4.53296875 13.89328125 -5.375 13.625 C-6.59316406 13.24214844 -6.59316406 13.24214844 -7.8359375 12.8515625 C-10 12 -10 12 -12 10 C-12.56321839 3.8045977 -12.56321839 3.8045977 -10.6875 1.125 C-6.9525212 -1.36498587 -4.19821646 -1.13701696 0 0 Z " fill="#1D3AB1" transform="translate(204,27)"></path><path d="M0 0 C2.4375 0.9375 2.4375 0.9375 4 3 C4.32756713 6.02865342 4.22893504 8.96661073 4 12 C7.465 13.485 7.465 13.485 11 15 C10.67 16.65 10.34 18.3 10 20 C2.21406284 18.38911645 -5.37428218 16.23456312 -13 14 C-12.56476716 8.86425246 -12.19875176 5.22235233 -9 1 C-5.94306678 -0.52846661 -3.37015453 -0.23242445 0 0 Z M-5 5 C-5.66 6.32 -6.32 7.64 -7 9 C-5.02 9.66 -3.04 10.32 -1 11 C-1 9.35 -1 7.7 -1 6 C-2.32 5.67 -3.64 5.34 -5 5 Z " fill="#1D3CB5" transform="translate(44,166)"></path><path d="M0 0 C8.33871822 1.11705508 8.33871822 1.11705508 12 3 C14.47342266 6.71013399 14.38503486 8.61060262 14 13 C13.0625 15.375 13.0625 15.375 11 17 C8.00762978 17.62606327 5.05114366 17.87206945 2 18 C1.34 19.98 0.68 21.96 0 24 C-1.65 23.67 -3.3 23.34 -5 23 C-4.34240251 17.73229802 -3.26735876 12.69866827 -1.9375 7.5625 C-1.75123047 6.83095703 -1.56496094 6.09941406 -1.37304688 5.34570312 C-0.9186242 3.56296802 -0.45977534 1.78136213 0 0 Z M5 6 C4.67 7.98 4.34 9.96 4 12 C5.65 11.67 7.3 11.34 9 11 C9 9.68 9 8.36 9 7 C7.68 6.67 6.36 6.34 5 6 Z " fill="#1E3CB6" transform="translate(176,405)"></path><path d="M0 0 C10.7371943 1.95013144 10.7371943 1.95013144 13 5 C13.49321806 8.06827516 13.61379156 10.94763118 13 14 C11.23700667 16.22377568 10.30197414 16.90708488 7.5625 17.75 C5.04251867 17.99585184 3.38257205 17.79419068 1 17 C0.34 19.31 -0.32 21.62 -1 24 C-2.65 23.67 -4.3 23.34 -6 23 C-4.80398501 15.00558401 -2.73311633 7.602309 0 0 Z M4 6 C3.34 7.98 2.68 9.96 2 12 C3.89179203 12.6814823 3.89179203 12.6814823 6 13 C6.66 12.34 7.32 11.68 8 11 C7.91428339 8.90708843 7.91428339 8.90708843 7 7 C6.01 6.67 5.02 6.34 4 6 Z " fill="#1E3CB6" transform="translate(278,30)"></path><path d="M0 0 C3 2.625 3 2.625 5 6 C4.8125 9.375 4.8125 9.375 4 12 C3.01 12.33 2.02 12.66 1 13 C-0.5 11.75 -0.5 11.75 -2 10 C-2 8.68 -2 7.36 -2 6 C-3.87880872 6.04768403 -3.87880872 6.04768403 -6 7 C-8.93355173 10.66693966 -10 12.23130534 -10 17 C-8.02 16.67 -6.04 16.34 -4 16 C-3.34 17.32 -2.68 18.64 -2 20 C-3.84851333 22.46468444 -4.7731055 22.96547258 -7.875 23.4375 C-11.81965661 22.88524807 -13.34258516 21.9611194 -16 19 C-17.0625 15.625 -17.0625 15.625 -17 12 C-15.3125 8.875 -15.3125 8.875 -13 6 C-12.29875 5.071875 -11.5975 4.14375 -10.875 3.1875 C-7.62746249 -0.60129376 -4.87311983 -0.57816676 0 0 Z " fill="#1D3BB3" transform="translate(123,377)"></path><path d="M0 0 C1.00836914 -0.02416992 1.00836914 -0.02416992 2.03710938 -0.04882812 C4.93297806 -0.05170386 6.93596853 -0.03928997 9.34765625 1.65234375 C11.03168722 4.2176239 11.31550201 6.26255022 11.4375 9.3125 C9.83338152 12.84156067 8.69590638 14.14022908 5.4375 16.3125 C4.4475 16.3125 3.4575 16.3125 2.4375 16.3125 C2.4375 14.3325 2.4375 12.3525 2.4375 10.3125 C3.4275 10.3125 4.4175 10.3125 5.4375 10.3125 C5.1075 8.9925 4.7775 7.6725 4.4375 6.3125 C-0.03677924 6.22301442 -4.16813789 6.45506349 -8.5625 7.3125 C-7.89381686 10.42582248 -7.89381686 10.42582248 -5.5 11.5 C-4.860625 11.768125 -4.22125 12.03625 -3.5625 12.3125 C-3.5625 13.9625 -3.5625 15.6125 -3.5625 17.3125 C-10.3125 16.5625 -10.3125 16.5625 -12.5625 14.3125 C-13.60456898 9.71002868 -14.04281881 6.44636469 -11.5625 2.3125 C-7.93165516 -0.20794084 -4.31020124 0.01263989 0 0 Z " fill="#1D3AB1" transform="translate(423.5625,197.6875)"></path><path d="M0 0 C2.59433356 0.57333338 3.50987756 1.38510931 5.12109375 3.46875 C5.80859375 6.15625 5.80859375 6.15625 6.12109375 8.46875 C4.14109375 8.46875 2.16109375 8.46875 0.12109375 8.46875 C0.12109375 7.47875 0.12109375 6.48875 0.12109375 5.46875 C-1.19890625 5.79875 -2.51890625 6.12875 -3.87890625 6.46875 C-3.90588814 8.09365954 -3.92529382 9.71869633 -3.94140625 11.34375 C-3.95300781 12.24867187 -3.96460938 13.15359375 -3.9765625 14.0859375 C-4.04139882 16.4856085 -4.04139882 16.4856085 -2.87890625 18.46875 C-1.55890625 18.46875 -0.23890625 18.46875 1.12109375 18.46875 C1.12109375 17.47875 1.12109375 16.48875 1.12109375 15.46875 C2.77109375 15.13875 4.42109375 14.80875 6.12109375 14.46875 C5.63754364 20.87578902 5.63754364 20.87578902 3.43359375 23.40625 C0.33464895 24.8300895 -1.50073437 25.02028827 -4.87890625 24.46875 C-7.98055394 21.91850635 -9.60457041 20.29175753 -10.87890625 16.46875 C-11.35661459 11.40974041 -11.5519989 6.96125978 -9.44140625 2.28125 C-6.1692859 -0.03317659 -3.92670255 -0.05297406 0 0 Z " fill="#1D3AB1" transform="translate(219.87890625,24.53125)"></path><path d="M0 0 C1.93681161 -0.08107583 3.8745934 -0.13922475 5.8125 -0.1875 C6.89144531 -0.22230469 7.97039062 -0.25710937 9.08203125 -0.29296875 C12 0 12 0 13.83203125 1.30078125 C15.7705907 4.12109349 15.88379874 6.63016343 16 10 C14.9375 12.875 14.9375 12.875 13 15 C7.90909091 16.45454545 7.90909091 16.45454545 5 15 C4.67 17.64 4.34 20.28 4 23 C2.35 23 0.7 23 -1 23 C-1.1567564 15.28410183 -0.67453101 7.68483539 0 0 Z M6 5 C5.67 6.98 5.34 8.96 5 11 C6.65 10.67 8.3 10.34 10 10 C9.67 8.35 9.34 6.7 9 5 C8.01 5 7.02 5 6 5 Z " fill="#1E3CB6" transform="translate(236,25)"></path><path d="M0 0 C-1.16194152 6.46712188 -3.1248748 12.09622349 -6 18 C-2.04 17.505 -2.04 17.505 2 17 C2.38218767 18.65614657 2.71395102 20.32457024 3 22 C0.64222417 24.35777583 -4.05797223 23.97374139 -7.2421875 24.0625 C-9.1615714 24.0625 -11.08091141 24.03366822 -13 24 C-12.52877252 17.0886636 -9.79363994 11.27795839 -7 5 C-9.64 5.33 -12.28 5.66 -15 6 C-15.33 4.35 -15.66 2.7 -16 1 C-13.8973294 0.63705686 -11.79278943 0.28493028 -9.6875 -0.0625 C-8.51574219 -0.25972656 -7.34398437 -0.45695312 -6.13671875 -0.66015625 C-3 -1 -3 -1 0 0 Z " fill="#1D3AB0" transform="translate(263,411)"></path><path d="M0 0 C4.44792401 1.37481288 6.09284727 3.20559861 8.75 6.875 C9.80448223 10.23017074 9.29540175 12.69217168 8.4375 16.0625 C6.8125 18.0625 6.8125 18.0625 4.4375 19.0625 C-0.18506143 19.14654657 -1.99986314 18.57621192 -5.4375 15.4375 C-7.80534189 11.67680993 -8.72418442 9.50882158 -8.5625 5.0625 C-5.9635106 1.1640159 -4.73279886 0.08303156 0 0 Z M-2.5625 5.0625 C-2.8925 6.0525 -3.2225 7.0425 -3.5625 8.0625 C-2.59042965 9.73830052 -2.59042965 9.73830052 -1.125 11.25 C-0.279375 12.178125 0.56625 13.10625 1.4375 14.0625 C2.4275 13.7325 3.4175 13.4025 4.4375 13.0625 C3.89662682 9.27638773 2.32027668 7.50849233 -0.5625 5.0625 C-1.2225 5.0625 -1.8825 5.0625 -2.5625 5.0625 Z " fill="#1D3AB0" transform="translate(112.5625,68.9375)"></path><path d="M0 0 C0 1.32 0 2.64 0 4 C-1.98 4.99 -1.98 4.99 -4 6 C-3.6390625 7.04800781 -3.278125 8.09601563 -2.90625 9.17578125 C-2.43726182 10.55460651 -1.9685249 11.93351725 -1.5 13.3125 C-1.26152344 14.00279297 -1.02304687 14.69308594 -0.77734375 15.40429688 C0.23208263 18.38931489 1 20.82658914 1 24 C-0.98 24.33 -2.96 24.66 -5 25 C-5.83698386 22.54285453 -6.66972424 20.08441143 -7.5 17.625 C-7.73847656 16.92632812 -7.97695313 16.22765625 -8.22265625 15.5078125 C-10 10.2265625 -10 10.2265625 -10 8 C-11.98 8.33 -13.96 8.66 -16 9 C-16.33 7.35 -16.66 5.7 -17 4 C-14.54453034 3.13670227 -12.08621957 2.28410564 -9.625 1.4375 C-8.57699219 1.0672168 -8.57699219 1.0672168 -7.5078125 0.68945312 C-2.2265625 -1.11328125 -2.2265625 -1.11328125 0 0 Z " fill="#1C3AAF" transform="translate(295,402)"></path><path d="M0 0 C5.28 0.66 10.56 1.32 16 2 C16 3.65 16 5.3 16 7 C14.02 7 12.04 7 10 7 C9.86722656 7.96421875 9.73445312 8.9284375 9.59765625 9.921875 C9.42105469 11.18515625 9.24445313 12.4484375 9.0625 13.75 C8.88847656 15.00296875 8.71445313 16.2559375 8.53515625 17.546875 C8.13950662 20.09982593 7.69553578 22.5186291 7 25 C5.35 24.67 3.7 24.34 2 24 C2.96355353 11.33029613 2.96355353 11.33029613 4 6 C2.35 5.67 0.7 5.34 -1 5 C-0.67 3.35 -0.34 1.7 0 0 Z " fill="#1E3CB4" transform="translate(192,409)"></path><path d="M0 0 C5.61 1.98 11.22 3.96 17 6 C17.99 4.02 18.98 2.04 20 0 C22.475 0.495 22.475 0.495 25 1 C24.54803755 2.60597325 24.08817673 4.20972508 23.625 5.8125 C23.24214844 7.15248047 23.24214844 7.15248047 22.8515625 8.51953125 C22 11 22 11 20 14 C12.81783567 11.72564796 5.9241798 8.96415819 -1 6 C-1.042721 4.33388095 -1.04063832 2.66617115 -1 1 C-0.67 0.67 -0.34 0.34 0 0 Z " fill="#1D3AB0" transform="translate(38,156)"></path><path d="M0 0 C3.06277267 0.14126626 6.12513542 0.28784396 9.1875 0.4375 C10.05181641 0.47681641 10.91613281 0.51613281 11.80664062 0.55664062 C15.95914122 0.76347016 19.94537862 1.00103531 24 2 C24 3.98 24 5.96 24 8 C22.35 8.33 20.7 8.66 19 9 C19 11.97 19 14.94 19 18 C18.67 18 18.34 18 18 18 C18 14.7 18 11.4 18 8 C12.06 7.34 6.12 6.68 0 6 C0 4.02 0 2.04 0 0 Z " fill="#1B36A5" transform="translate(25,208)"></path><path d="M0 0 C2.475 0.99 2.475 0.99 5 2 C4.51213992 7.13746536 1.9035465 10.61394633 -0.9375 14.75 C-1.39318359 15.43449219 -1.84886719 16.11898438 -2.31835938 16.82421875 C-5.72565679 21.86282839 -5.72565679 21.86282839 -8 23 C-8.99 22.34 -9.98 21.68 -11 21 C-10.51342376 15.75118824 -7.73452602 11.9926886 -4.9375 7.6875 C-4.46505859 6.94693359 -3.99261719 6.20636719 -3.50585938 5.44335938 C-2.34412851 3.62448781 -1.17298518 1.8116341 0 0 Z " fill="#1C39AD" transform="translate(131,384)"></path><path d="M0 0 C2.475 0.99 2.475 0.99 5 2 C3.53171057 7.17935061 1.18508737 11.34373412 -1.625 15.875 C-2.04523438 16.56335938 -2.46546875 17.25171875 -2.8984375 17.9609375 C-3.92692472 19.64391658 -4.962721 21.32242532 -6 23 C-8.475 22.01 -8.475 22.01 -11 21 C-9.54043075 17.20791338 -7.87026174 13.57602299 -6.0625 9.9375 C-5.55847656 8.91527344 -5.05445313 7.89304687 -4.53515625 6.83984375 C-3.18945479 4.35046727 -1.76803751 2.20081087 0 0 Z " fill="#1C39AE" transform="translate(327,49)"></path><path d="M0 0 C1.98 0 3.96 0 6 0 C6 7.59 6 15.18 6 23 C4.02 23 2.04 23 0 23 C0 15.41 0 7.82 0 0 Z " fill="#1C38A9" transform="translate(227,25)"></path><path d="M0 0 C1.15149172 2.72690077 2.29632922 5.45628304 3.4375 8.1875 C3.76298828 8.95642578 4.08847656 9.72535156 4.42382812 10.51757812 C6.00843574 14.32390364 7.41484439 17.88742747 8 22 C6.02 22.33 4.04 22.66 2 23 C0.84850828 20.27309923 -0.29632922 17.54371696 -1.4375 14.8125 C-1.76298828 14.04357422 -2.08847656 13.27464844 -2.42382812 12.48242188 C-4.00843574 8.67609636 -5.41484439 5.11257253 -6 1 C-4 0 -4 0 0 0 Z " fill="#1C39AF" transform="translate(301,399)"></path><path d="M0 0 C1.98 0 3.96 0 6 0 C6.67453101 7.68483539 7.1567564 15.28410183 7 23 C5.35 23.33 3.7 23.66 2 24 C1.16628641 21.04491553 0.82110466 18.29890387 0.68359375 15.234375 C0.64169922 14.34492188 0.59980469 13.45546875 0.55664062 12.5390625 C0.49766602 11.15847656 0.49766602 11.15847656 0.4375 9.75 C0.39431641 8.81414062 0.35113281 7.87828125 0.30664062 6.9140625 C0.2008195 4.60951359 0.09873443 2.30486161 0 0 Z " fill="#1D3AAF" transform="translate(240,412)"></path><path d="M0 0 C1.98 0 3.96 0 6 0 C5.85823579 2.70860124 5.71171784 5.41680752 5.5625 8.125 C5.50352539 9.26582031 5.50352539 9.26582031 5.44335938 10.4296875 C5.20490998 14.68509203 4.79769763 18.80370826 4 23 C2.02 23 0.04 23 -2 23 C-1.34 15.41 -0.68 7.82 0 0 Z " fill="#1E3CB7" transform="translate(209,412)"></path><path d="M0 0 C2.0625 0.4375 2.0625 0.4375 4 1 C3.67 2.65 3.34 4.3 3 6 C1.68 5.67 0.36 5.34 -1 5 C-1 1 -1 1 0 0 Z " fill="#19339A" transform="translate(180,40)"></path><path d="M0 0 C1.67542976 0.28604898 3.34385343 0.61781233 5 1 C4.67 2.32 4.34 3.64 4 5 C2.68 5 1.36 5 0 5 C-0.5625 3.0625 -0.5625 3.0625 -1 1 C-0.67 0.67 -0.34 0.34 0 0 Z " fill="#1B36A4" transform="translate(261,37)"></path><path d="M0 0 C1.65 0 3.3 0 5 0 C5 1.65 5 3.3 5 5 C3.35 5 1.7 5 0 5 C0 3.35 0 1.7 0 0 Z " fill="#1D3CB5" transform="translate(411,166)"></path></svg>